<svg width="134" height="134" viewBox="0 0 134 134" fill="none" xmlns="http://www.w3.org/2000/svg">
<path d="M80.8877 65.8349L73.184 62.3373L89.2032 29.3026H71.168L98.8218 14.6562L103.413 46.5722L95.4335 35.8607L80.8877 65.8349Z" fill="#1F5F7C"/>
<path d="M74.4663 34.9054L85.3245 32.3496L71.2149 61.4421L63.332 57.8632L74.4663 34.9054Z" fill="#1F5F7C"/>
<path d="M33.6359 37.9571L45.9748 35.0527L33.9585 59.8291L90.9302 85.6949L78.6112 111.095L66.2724 114L77.628 90.5857L20.6562 64.7198L33.6359 37.9571Z" fill="#B69A3D"/>
<path d="M81.0772 110.515L93.4161 107.611L106.891 79.8269L49.9194 53.961L60.7796 31.5684L48.4408 34.4727L36.6172 58.8518L93.589 84.7176L81.0772 110.515Z" fill="#B69A3D"/>
<path d="M59.9163 84.7313L52.0334 81.1523L42.9102 99.9636L50.793 103.542L59.9163 84.7313Z" fill="#B69A3D"/>
<path d="M69.5926 89.1255L61.8889 85.6279L52.7656 104.439L60.4694 107.937L69.5926 89.1255Z" fill="#B69A3D"/>
<path d="M80.2315 65.1787L72.5277 61.6811L88.547 28.6464H70.5117L98.1656 14L102.756 45.916L94.7772 35.2045L80.2315 65.1787Z" fill="#2C88B2"/>
<path d="M73.8101 34.2492L84.6683 31.6934L70.5587 60.7858L62.6758 57.2069L73.8101 34.2492Z" fill="#2C88B2"/>
<path d="M32.9797 37.3028L45.3185 34.3984L33.3022 59.1748L90.274 85.0406L77.955 110.441L65.6161 113.346L76.9718 89.9314L20 64.0655L32.9797 37.3028Z" fill="#F1CD53"/>
<path d="M80.4249 109.859L92.7637 106.955L106.239 79.1706L49.2671 53.3048L60.1273 30.9121L47.7885 33.8165L35.9648 58.1955L92.9366 84.0614L80.4249 109.859Z" fill="#F1CD53"/>
<path d="M59.264 84.075L51.3811 80.4961L42.2578 99.3073L50.1407 102.886L59.264 84.075Z" fill="#F1CD53"/>
<path d="M68.9364 88.4683L61.2326 84.9707L52.1094 103.782L59.8131 107.279L68.9364 88.4683Z" fill="#F1CD53"/>
</svg>
