<?xml version="1.0" encoding="UTF-8" standalone="no"?>
<!DOCTYPE svg PUBLIC "-//W3C//DTD SVG 1.1//EN" "http://www.w3.org/Graphics/SVG/1.1/DTD/svg11.dtd">
<svg width="100%" height="100%" viewBox="0 0 345 145" version="1.1" xmlns="http://www.w3.org/2000/svg" xmlns:xlink="http://www.w3.org/1999/xlink" xml:space="preserve" xmlns:serif="http://www.serif.com/" style="fill-rule:evenodd;clip-rule:evenodd;stroke-linejoin:round;stroke-miterlimit:2;">
    <g transform="matrix(1,0,0,1,-3.611153,-3.967995)">
        <path d="M267.28,136.75C259.49,135.97 252.26,131.71 248.16,125.51C240.68,114.23 243.86,98.49 255.12,90.97C259.91,87.77 265.98,86.31 272.98,86.69C280.5,87.12 287.93,91.41 292.03,97.7C300.92,111.38 295.41,129.11 280.39,135.06C276.85,136.47 271.41,137.16 267.27,136.74L267.28,136.75ZM274.56,127.71C278.07,126.77 281.79,124.13 283.76,121.15C285.62,118.37 286.74,114.01 286.47,110.56C286.11,105.88 283.87,101.47 280.54,98.83C278.91,97.51 276.13,96.17 274.07,95.67C271.63,95.11 267.58,95.31 265.16,96.12C260.66,97.64 257.53,100.49 255.56,104.81C254.46,107.21 254.08,109 254.08,111.86C254.08,119.92 259.07,126.16 266.95,127.91C268.88,128.34 272.59,128.25 274.56,127.71Z" style="fill:rgb(5,32,62);fill-rule:nonzero;"/>
        <path d="M141.41,135.95C141.32,135.88 141.25,125.05 141.25,111.89C141.25,89.33 141.27,87.96 141.65,87.8C141.85,87.71 147.18,87.64 153.45,87.64L164.87,87.64L166.84,88.27C171.7,89.79 174.85,92.3 176.96,96.31C179.18,100.52 179.24,106.32 177.09,110.55C175.23,114.22 171.94,117.06 167.89,118.47C165.18,119.41 163.73,119.57 157.37,119.63L151.21,119.7L151.14,127.92L151.1,136.11L146.33,136.11C143.69,136.11 141.47,136.04 141.41,135.95ZM161.91,111.26C166.41,110.61 169.3,107.1 168.94,102.73C168.69,99.84 167.24,97.76 164.66,96.55L163.29,95.92L151.21,95.92L151.14,103.42C151.12,107.54 151.14,111.05 151.21,111.19C151.34,111.55 159.58,111.59 161.91,111.26Z" style="fill:rgb(5,32,62);fill-rule:nonzero;"/>
        <path d="M185.8,111.59L185.8,87.08L196.06,87.08L198.66,91.62C204.86,102.48 211.02,112.89 211.2,112.91C211.31,112.93 212.23,111.52 213.24,109.8C214.25,108.08 217.43,102.64 220.29,97.71C223.16,92.79 225.66,88.49 225.86,88.15C226.06,87.81 226.42,87.5 226.67,87.43C226.92,87.36 229.27,87.3 231.86,87.3L236.63,87.3L236.72,87.81C236.76,88.08 236.79,99.02 236.76,112.14L236.74,135.98L231.66,136.05L226.56,136.09L226.56,120.76C226.56,106.3 226.54,105.43 226.18,105.43C225.89,105.45 223.63,109.01 218.59,117.36C214.63,123.92 211.29,129.25 211.2,129.22C211.09,129.18 209.57,126.76 207.8,123.85C206.03,120.92 202.88,115.72 200.79,112.3C198.69,108.88 196.92,105.92 196.85,105.74C196.78,105.58 196.54,105.43 196.31,105.43C195.91,105.43 195.88,105.9 195.84,120.72L195.77,135.99L190.8,136.06L185.81,136.1L185.81,111.59L185.8,111.59Z" style="fill:rgb(5,32,62);fill-rule:nonzero;"/>
        <path d="M202.43,73.78C200.06,73.33 198.02,72.62 195.76,71.45C194.13,70.62 193.34,70.02 191.62,68.27C189.18,65.83 187.99,63.86 187.05,60.59C186.11,57.32 186,54.97 186.07,38.83L186.14,23.83L190.89,23.76L195.64,23.72L195.73,40.22C195.8,52.17 195.89,57.01 196.09,57.73C197.46,62.72 201.22,65.34 206.97,65.36C212.43,65.36 215.97,62.79 217.27,57.86C217.58,56.7 217.63,54.39 217.61,40.38C217.61,27.17 217.65,24.2 217.9,23.99C218.08,23.83 219.78,23.72 222.78,23.72L227.35,23.68L227.28,40C227.19,57.28 227.12,58.56 226.09,61.6C224.05,67.6 219.49,71.7 212.91,73.42C210.47,74.05 204.92,74.25 202.46,73.78L202.43,73.78Z" style="fill:rgb(5,32,62);fill-rule:nonzero;"/>
        <path d="M287.25,73.87C281.65,73.09 276.84,70.69 273.06,66.86C272.1,65.88 271.31,65 271.31,64.89C271.31,64.8 272.09,64.08 273.06,63.32C274,62.54 275.46,61.33 276.26,60.61C277.09,59.89 277.87,59.31 278.03,59.31C278.16,59.31 279.04,60.05 279.93,60.97C285.62,66.63 295.8,66.9 298.08,61.42C298.84,59.58 298.24,57.1 296.69,55.76C295.57,54.78 294.61,54.33 289.1,52.25C281.31,49.32 279.77,48.53 277.17,46.05C274.48,43.45 273.32,40.81 273.32,37.21C273.32,34.79 273.66,33.34 274.66,31.35C276.47,27.77 280.19,24.99 284.85,23.72C286.35,23.32 287.27,23.23 290.67,23.23C294.18,23.21 294.92,23.27 296.49,23.7C298.5,24.26 301.44,25.6 303.05,26.68C304.35,27.58 307.57,30.66 307.57,31.02C307.57,31.18 306.09,32.5 304.3,34L301.01,36.71L299.44,35.28C297.56,33.56 295.86,32.62 293.55,32.03C289.5,30.98 285.51,31.96 283.83,34.43C283.14,35.44 282.98,37.12 283.47,38.39C284.3,40.54 286.63,41.95 293.23,44.25C300.24,46.69 302.88,48.1 305.21,50.67C308.72,54.54 309.46,60.56 307.02,65.49C305.14,69.27 301.22,72.14 296.14,73.41C293.97,73.97 289.51,74.19 287.23,73.88L287.25,73.87Z" style="fill:rgb(5,32,62);fill-rule:nonzero;"/>
        <path d="M141.41,73.29C141.32,73.2 141.25,62.01 141.25,48.42L141.25,23.71L153.07,23.78C164.51,23.87 164.93,23.89 166.77,24.38C173.15,26.08 177.38,30.13 179.01,36.13C179.52,38.03 179.52,42.17 179.01,44.1C178.32,46.72 177.04,49.05 175.29,50.88C172.78,53.5 170.32,54.93 166.31,56.03C164.85,56.41 163.74,56.5 158.03,56.61L151.43,56.74L151.21,73.3L146.37,73.37C143.73,73.39 141.49,73.35 141.4,73.28L141.41,73.29ZM164.2,47.7C167.92,46.36 169.98,43.11 169.59,39.17C169.3,36.33 167.91,34.27 165.47,33.08L163.99,32.34L151.31,32.2L151.31,40.12C151.31,44.46 151.38,48.11 151.49,48.2C151.58,48.29 154.18,48.33 157.24,48.27C162.28,48.2 162.97,48.14 164.18,47.69L164.2,47.7Z" style="fill:rgb(5,32,62);fill-rule:nonzero;"/>
        <path d="M236.39,48.46L236.39,23.72L246.01,23.72L246.05,44.05L246.12,64.35L267.38,64.39L267.45,68.78L267.49,73.19L236.37,73.19L236.37,48.45L236.39,48.46Z" style="fill:rgb(5,32,62);fill-rule:nonzero;"/>
        <path d="M316.12,48.64L316.19,24.06L332.04,23.99L347.87,23.95L347.83,28.14L347.76,32.35L336.9,32.46C330.92,32.53 326.02,32.59 325.98,32.64C325.96,32.66 325.96,35.24 325.98,38.35L326.05,43.99L345.31,44.21L345.31,52.27L326.05,52.49L326.05,64.35L336.97,64.42L347.89,64.46L347.85,68.42C347.83,70.59 347.76,72.56 347.69,72.79C347.6,73.17 346.79,73.19 331.84,73.19L316.08,73.19L316.12,48.63L316.12,48.64Z" style="fill:rgb(5,32,62);fill-rule:nonzero;"/>
    </g>
    <g id="Artboard1" transform="matrix(132.413685,0,0,85.708209,-511.759248,-323.017674)">
        <rect x="3.865" y="3.769" width="2.6" height="1.681" style="fill:none;"/>
        <clipPath id="_clip1">
            <rect x="3.865" y="3.769" width="2.6" height="1.681"/>
        </clipPath>
        <g clip-path="url(#_clip1)">
            <g transform="matrix(0.007552,0,0,0.011667,3.837785,3.723187)">
                <path d="M3.96,146.6C3.89,145.82 3.85,113.38 3.87,74.54L3.91,3.91L37.38,3.91C74.43,3.91 72.48,3.84 78.73,5.39C97.44,10 110.36,24.64 112.4,43.53C112.71,46.46 112.56,52.3 112.09,55.06C110.77,62.81 107.25,70.37 102.31,76.21C100.34,78.52 95.57,83.15 94.14,84.16C89.84,87.14 84.87,89.69 81.38,90.74C75.96,92.33 75.25,92.51 71.87,92.89C68.96,93.23 57.99,93.18 58.1,92.85C58.14,92.69 59.44,88.66 61.01,83.92L63.81,75.26L67.12,75.1C72.31,74.85 76.63,73.69 80.15,71.56C81.54,70.73 83.96,68.61 83.96,68.22C83.96,68.13 79.98,68.04 75.12,68.04C67.67,68.04 66.14,68 65.45,67.7C63.66,66.96 63.44,66.51 60.91,59.19C59.3,54.49 58.92,53.59 58.56,53.59C58.2,53.59 57.87,54.44 56.37,59.07C49.99,78.95 46.63,89.18 46.18,90.07C45.06,92.35 42.98,93.18 40.85,92.22C39.55,91.62 38.81,90.43 37.16,86.27C36.4,84.3 35.08,81.03 34.27,78.99L32.79,75.3L27.82,75.23L22.87,75.19L22.78,101.65C22.71,127.82 22.71,128.15 22.24,130.15C21.26,134.25 19.8,137.54 17.9,140.02C16.4,141.97 13,145.1 11.54,145.84C9.68,146.82 6.86,147.74 5.36,147.88L4.11,148.01L3.98,146.58L3.96,146.6ZM43.51,71.59C44.32,69.08 45.77,64.47 46.76,61.34C52.58,42.65 54.15,37.84 54.75,36.78C55.44,35.59 56.54,34.92 58.06,34.77C59.78,34.59 61.06,35.35 61.87,36.99C62.18,37.64 64,42.56 65.88,47.91C67.78,53.26 69.51,58.03 69.69,58.5L70.05,59.33L90.67,59.33L91.12,58.61C91.37,58.21 91.86,57.04 92.22,56.04C94.39,50.11 94.1,43.03 91.5,37.53C87.72,29.56 80.71,24.35 71.64,22.76C69.74,22.42 67.12,22.4 46.23,22.45L22.95,22.52L22.95,66.4L29.55,66.4C35.97,66.42 36.18,66.42 37.12,66.91C38.42,67.6 39.07,68.68 40.52,72.73C41.19,74.61 41.82,76.13 41.91,76.13C42,76.13 42.72,74.09 43.52,71.61L43.51,71.59Z" style="fill:rgb(4,150,177);fill-rule:nonzero;"/>
                <path d="M236.7,132.07C236.7,130.17 236.74,129.38 236.77,130.35C236.81,131.29 236.81,132.86 236.77,133.82C236.75,134.76 236.7,133.98 236.7,132.07Z" style="fill:rgb(4,150,177);fill-rule:nonzero;"/>
                <path d="M236.68,89.09C236.68,88.28 236.72,87.97 236.77,88.37C236.81,88.75 236.81,89.42 236.77,89.83C236.73,90.21 236.68,89.9 236.68,89.09Z" style="fill:rgb(4,150,177);fill-rule:nonzero;"/>
                <path d="M217.7,41.19C217.7,35.1 217.72,32.59 217.74,35.66C217.78,38.7 217.78,43.67 217.74,46.74C217.72,49.78 217.7,47.28 217.7,41.19Z" style="fill:rgb(4,150,177);fill-rule:nonzero;"/>
                <path d="M227.21,29.5C227.14,26.21 227.17,23.59 227.28,23.7C227.37,23.79 227.41,26.48 227.39,29.68L227.32,35.48L227.21,29.5Z" style="fill:rgb(4,150,177);fill-rule:nonzero;"/>
            </g>
        </g>
    </g>
</svg>
